# xmcd
# 
# Track frame offsets:
#     150
#     17837
#     39932
#     61566
#     79150
#     99685
#     122085
#     147338
#     166812
#     183795
# 
# Disc length: 2893
# 
# Revision: 3
# Processed by: cddbd v1.5.2PL0 Copyright (c) Steve Scherf et al.
# Submitted via: fre:ac v1.0.31
# 
DISCID=750b4b0a
DTITLE=John Mayall - Nobody Told Me
DYEAR=2019
DGENRE=Blues
TTITLE0=What Have I Done Wrong (Joe Bonamassa)
TTITLE1=The Moon Is Full (Larry McCray)
TTITLE2=Evil And Here To Stay (Alex Lifeson)
TTITLE3=That's What Love Will Make You Do (Todd Rundgren)
TTITLE4=Distant Lonesome Train (Carolyn Wonderland)
TTITLE5=Delta Hurricane (Joe Bonamassa)
TTITLE6=The Hurt Inside (Larry McCray)
TTITLE7=It's So Tough (Steven VanZandt)
TTITLE8=Like It Like You Do (Carolyn Wonderland)
TTITLE9=Nobody Told Me (Carolyn Wonderland)
EXTD=
EXTT0=
EXTT1=
EXTT2=
EXTT3=
EXTT4=
EXTT5=
EXTT6=
EXTT7=
EXTT8=
EXTT9=
PLAYORDER=
